<svg width="52" height="52" viewBox="0 0 52 52" fill="none" xmlns="http://www.w3.org/2000/svg">
<path d="M4.86853 8.66667C4.86853 7.475 5.86295 6.5 7.07836 6.5H44.6454C45.8608 6.5 46.8553 7.475 46.8553 8.66667C46.8553 9.85833 45.8608 10.8333 44.6454 10.8333H7.07836C5.86295 10.8333 4.86853 9.85833 4.86853 8.66667ZM44.6454 41.1667H7.07836C5.86295 41.1667 4.86853 42.1417 4.86853 43.3333C4.86853 44.525 5.86295 45.5 7.07836 45.5H44.6454C45.8608 45.5 46.8553 44.525 46.8553 43.3333C46.8553 42.1417 45.8608 41.1667 44.6454 41.1667ZM44.9217 23.8333H7.35459C6.13918 23.8333 5.14476 24.8083 5.14476 26C5.14476 27.1917 6.13918 28.1667 7.35459 28.1667H44.9217C46.1371 28.1667 47.1315 27.1917 47.1315 26C47.1315 24.8083 46.1371 23.8333 44.9217 23.8333Z" fill="white"/>
</svg>
